<svg id="visual" viewBox="0 0 900 600" width="900" height="600" xmlns="http://www.w3.org/2000/svg" xmlns:xlink="http://www.w3.org/1999/xlink" version="1.1"><path d="M0 115L82 73L164 103L245 55L327 61L409 91L491 103L573 121L655 49L736 103L818 49L900 115L900 0L818 0L736 0L655 0L573 0L491 0L409 0L327 0L245 0L164 0L82 0L0 0Z" fill="#00cc8e"></path><path d="M0 205L82 229L164 295L245 241L327 301L409 307L491 229L573 307L655 139L736 361L818 277L900 223L900 113L818 47L736 101L655 47L573 119L491 101L409 89L327 59L245 53L164 101L82 71L0 113Z" fill="#00b388"></path><path d="M0 433L82 493L164 427L245 505L327 445L409 541L491 535L573 523L655 421L736 505L818 529L900 469L900 221L818 275L736 359L655 137L573 305L491 227L409 305L327 299L245 239L164 293L82 227L0 203Z" fill="#009b7f"></path><path d="M0 601L82 601L164 601L245 601L327 601L409 601L491 601L573 601L655 601L736 601L818 601L900 601L900 467L818 527L736 503L655 419L573 521L491 533L409 539L327 443L245 503L164 425L82 491L0 431Z" fill="#038373"></path></svg>